<?xml version="1.0" encoding="UTF-8"?>
<svg xmlns="http://www.w3.org/2000/svg" viewBox="0 0 357.94 83.3">
  <defs>
    <style>
      .cls-1 {
        fill: #b7c3a6;
      }
    </style>
  </defs>
  <g id="Ebene_1" data-name="Ebene 1">
    <path class="cls-1" d="M6.17,1.23c1.68,1.23,1.86,2.71,2.33,4.7,3.3,13.97,15.14,28.2,25.52,36.58,11.55,9.3,23.4,17.27,27.08,33h.61V24.01c0-10.22,1.02-18.7,3.37-22.79h-8.48c2.35,4.09,3.27,12.57,3.27,22.79v32.39c-4.29-7.87-13.79-14-22.89-21.56C27.48,26.98,18.69,18.29,17.26,1.23"/>
    <path class="cls-1" d="M137.94,66.11c-.82-.1-1.74,0-2.76.31.61,1.43.82,2.76.61,3.88-.41,3.37-4.09,5.01-11.85,3.98-3.17-.41-6.95-1.33-11.44-2.66-4.19-1.33-7.77-2.45-11.14-3.27-3.78-.92-7.56-1.84-11.04-2.35-6.95-.92-12.57-.1-13.9,5.72-.51,2.45,1.12,5.31,4.29,5.83.82.1,1.74,0,2.76-.31-.51-1.43-.82-2.76-.61-3.88.41-3.37,4.19-5.01,11.85-3.98,3.17.41,6.95,1.33,11.44,2.66,4.19,1.33,7.77,2.45,11.14,3.27,3.78.92,7.56,1.84,11.04,2.35,7.05.92,12.57.1,13.9-5.83.51-2.35-1.12-5.21-4.29-5.72Z"/>
    <path class="cls-1" d="M109.33,59.57c16.96,0,30.96-13.18,30.96-29.63S126.39.2,109.33.2s-30.96,13.29-30.96,29.74,13.79,29.63,30.96,29.63ZM106.06,3.27c14.71-1.02,26.87,12.98,26.98,30.86,0,11.96-6.95,22.38-21.36,22.38s-25.95-13.39-26.06-30.86c0-11.85,6.85-21.97,20.44-22.38Z"/>
    <path class="cls-1" d="M212.94,0c-2.86,1.02-7.26,1.02-10.83,1.02,1.33,4.09,1.53,7.15,1.53,12.26v35.66c-9.5,16.66-23.71,22.89-29.94,22.89-8.48,0-10.01-5.42-10.01-16.04V11.44c0-4.19.1-7.46,1.53-11.44-2.86,1.02-7.26,1.02-10.83,1.02,1.33,4.09,1.53,7.15,1.53,12.26v43.02c0,12.67,2.25,19.21,12.88,19.21,8.89,0,23.71-5.72,34.84-23.09v9.81c0,5.11-.2,8.17-1.53,12.26h10.83c-1.33-4.09-1.53-7.15-1.53-12.26V12.16c0-4.5,0-7.97,1.53-12.16Z"/>
    <path class="cls-1" d="M357.94,74.49c-2.66-2.04-4.5-5.72-6.23-10.42L328.3,1.23h-6.64l-16.35,42.2c-6.23,2.15-11.24,7.05-11.24,13.39,0,2.04.82,3.88,2.15,4.9.92.71,2.15,1.12,3.37,1.12,2.35,0,4.8-1.23,6.34-3.98-2.35-1.33-3.47-3.37-3.47-5.52,0-5.21,4.29-9.3,11.14-9.3,23.09,0,23.61,36.17-4.9,37.19-20.13.71-35.56-20.44-43.53-43.33,4.19-.92,7.66-2.45,10.32-4.5,4.39-3.47,6.54-8.48,6.54-14,0-4.19-1.23-8.17-4.39-11.24-4.09-4.19-11.04-6.95-21.15-6.95h-26.36c1.33,4.09,1.53,7.15,1.53,12.26v48.74c0,5.11-.21,8.17-1.53,12.26h10.83c-1.33-4.09-1.53-7.15-1.53-12.26v-23.5h16.45c10.93,25.44,27.79,45.37,51.81,44.55,31.98-1.12,32.29-41.18,5.21-41.18-1.74,0-3.47.2-5.11.61l14.2-36.99,21.97,59.47c.92,2.56,1.53,4.6,1.53,6.44,0,1.02-.2,1.94-.61,2.86h13.08ZM255.14,36.89h-15.73V3.06h11.34c8.79,0,15.43,2.45,19.41,7.15,2.76,2.76,4.09,7.15,4.09,11.34s-1.33,8.28-3.99,10.63c-3.27,3.17-8.28,4.7-15.12,4.7Z"/>
  </g>
  <g id="Ebene_2" data-name="Ebene 2">
    <path class="cls-1" d="M12.49,53.2l1.16,3.15c1.4,3.79,4.39,6.77,8.18,8.18l3.15,1.16-3.15,1.16c-3.79,1.4-6.77,4.39-8.18,8.18l-1.16,3.15-1.16-3.15c-1.4-3.79-4.39-6.77-8.18-8.18l-3.15-1.16,3.15-1.16c3.79-1.4,6.77-4.39,8.18-8.18l1.16-3.15Z"/>
  </g>
</svg>