<?xml version="1.0" encoding="UTF-8"?>
<svg id="Ebene_1" xmlns="http://www.w3.org/2000/svg" version="1.1" viewBox="0 0 500 500">
  <!-- Generator: Adobe Illustrator 30.3.0, SVG Export Plug-In . SVG Version: 2.1.3 Build 182)  -->
  <defs>
    <style>
      .st0 {
        fill: #b7c3a6;
      }
    </style>
  </defs>
  <path class="st0" d="M156.65,113.81c5.95,4.34,6.58,9.6,8.25,16.64,11.69,49.45,53.59,99.82,90.32,129.48,40.87,32.91,82.82,61.12,95.85,116.82h2.17v-182.29c0-36.17,3.62-66.18,11.94-80.65h-30.02c8.32,14.47,11.57,44.48,11.57,80.65v114.66c-15.19-27.85-48.83-49.55-81.02-76.32-33.64-27.85-64.74-58.59-69.8-118.99"/>
  <path class="st0" d="M179.03,297.77l9.73,26.3c1.4,3.79,4.39,6.77,8.18,8.18l26.3,9.73-26.3,9.73c-3.79,1.4-6.77,4.39-8.18,8.18l-9.73,26.3-9.73-26.3c-1.4-3.79-4.39-6.77-8.18-8.18l-26.3-9.73,26.3-9.73c3.79-1.4,6.77-4.39,8.18-8.18l9.73-26.3Z"/>
</svg>